<svg
   fill="#000000"
   width="208.33334"
   height="208.33334"
   viewBox="0 0 10 10"
   data-name="Layer 1"
   version="1.1"
   id="svg1"
   sodipodi:docname="facebook.svg"
   inkscape:version="1.3.2 (091e20e, 2023-11-25)"
   xmlns:inkscape="http://www.inkscape.org/namespaces/inkscape"
   xmlns:sodipodi="http://sodipodi.sourceforge.net/DTD/sodipodi-0.dtd"
   xmlns="http://www.w3.org/2000/svg"
   xmlns:svg="http://www.w3.org/2000/svg">
  <defs
     id="defs1" />
  <sodipodi:namedview
     id="namedview1"
     pagecolor="#ffffff"
     bordercolor="#000000"
     borderopacity="0.25"
     inkscape:showpageshadow="2"
     inkscape:pageopacity="0.0"
     inkscape:pagecheckerboard="0"
     inkscape:deskcolor="#d1d1d1"
     inkscape:zoom="1.08125"
     inkscape:cx="166.93642"
     inkscape:cy="166.93642"
     inkscape:window-width="1392"
     inkscape:window-height="1212"
     inkscape:window-x="1194"
     inkscape:window-y="120"
     inkscape:window-maximized="0"
     inkscape:current-layer="svg1" />
  <path
     d="M 9.45,0 H 0.55 A 0.55,0.55 0 0 0 0,0.55 v 8.9 A 0.55,0.55 0 0 0 0.55,10 H 5.34 V 6.125 h -1.3 v -1.5 h 1.3 V 3.5 a 1.82,1.82 0 0 1 1.94,-2 10.13,10.13 0 0 1 1.165,0.06 V 2.91 H 7.65 C 7.02,2.91 6.9,3.21 6.9,3.645 V 4.61 H 8.4 L 8.205,6.11 H 6.9 V 10 H 9.45 A 0.55,0.55 0 0 0 10,9.45 V 0.55 A 0.55,0.55 0 0 0 9.45,0 Z"
     id="path1"
     style="stroke-width:0.5" />
</svg>
