<svg
   fill="#000000"
   width="16"
   height="16"
   viewBox="0 0 1.2287999 1.2287999"
   data-name="Layer 1"
   version="1.1"
   id="svg1"
   sodipodi:docname="facebook.svg"
   inkscape:version="1.3.2 (091e20e, 2023-11-25)"
   xmlns:inkscape="http://www.inkscape.org/namespaces/inkscape"
   xmlns:sodipodi="http://sodipodi.sourceforge.net/DTD/sodipodi-0.dtd"
   xmlns="http://www.w3.org/2000/svg"
   xmlns:svg="http://www.w3.org/2000/svg">
  <defs
     id="defs1" />
  <sodipodi:namedview
     id="namedview1"
     pagecolor="#ffffff"
     bordercolor="#000000"
     borderopacity="0.25"
     inkscape:showpageshadow="2"
     inkscape:pageopacity="0.0"
     inkscape:pagecheckerboard="0"
     inkscape:deskcolor="#d1d1d1"
     inkscape:zoom="5.6255533"
     inkscape:cx="55.105691"
     inkscape:cy="58.572017"
     inkscape:window-width="1392"
     inkscape:window-height="1212"
     inkscape:window-x="1194"
     inkscape:window-y="92"
     inkscape:window-maximized="0"
     inkscape:current-layer="svg1" />
  <path
     d="M 1.1933194,0.01061543 H 0.09194437 a 0.0680625,0.0680625 0 0 0 -0.0680625,0.0680625 V 1.1800529 a 0.0680625,0.0680625 0 0 0 0.068062,0.068062 h 0.592763 V 0.76858423 h -0.160875 v -0.1856251 h 0.160875 v -0.1392187 a 0.225225,0.225225 0 0 1 0.240075,-0.2475 1.2535875,1.2535875 0 0 1 0.14416883,0.00742 v 0.1670625 h -0.098381 c -0.077962,0 -0.092812,0.037125 -0.092812,0.090956 v 0.119424 H 1.0633819 l -0.024131,0.185625 H 0.87775687 V 1.2481154 H 1.1933194 a 0.0680625,0.0680625 0 0 0 0.068062,-0.068063 V 0.07867793 a 0.0680625,0.0680625 0 0 0 -0.068062,-0.0680625 z"
     id="path1"
     style="stroke-width:0.061875" />
</svg>
