<svg xmlns="http://www.w3.org/2000/svg" viewBox="0 0 16 16" width="16" height="16"><path d="M7.3 6.4L7 6.1L3.7 2.8 2.3 4.2l1.3 1.3-1.3 1.3.4.4c.8.8 2.1.8 2.9 0L6.9 6l.4.4z"/><path d="M13.7 2.3L12.3.9l-1.3 1.3-1.3-1.3L8.3 2.2l1.3 1.3L8.3 4.8l1.4 1.4 1.3-1.3 1.3 1.3 1.4-1.4-1.3-1.3 1.3-1.3z"/><path d="M8 0C3.6 0 0 3.6 0 8s3.6 8 8 8 8-3.6 8-8-3.6-8-8-8zm3.2 10.7c-.4.4-1 .4-1.4 0L8 8.9l-1.8 1.8c-.4.4-1 .4-1.4 0-.4-.4-.4-1 0-1.4L6.6 7.5 4.8 5.7c-.4-.4-.4-1 0-1.4.4-.4 1-.4 1.4 0L8 6.1l1.8-1.8c.4-.4 1-.4 1.4 0 .4.4.4 1 0 1.4L9.4 7.5l1.8 1.8c.4.4.4 1 0 1.4z"/></svg>